<svg id="Layer_1" data-name="Layer 1" xmlns="http://www.w3.org/2000/svg" viewBox="0 0 338.4 392.65"><defs><style>.cls-1{fill:#a6b14a;}.cls-2{fill:#694d2a;}.cls-3{fill:#916d41;}.cls-4{fill:#72a323;}</style></defs><path class="cls-1" d="M97.37,376.75a210.08,210.08,0,0,0-7.06,21.12A136,136,0,0,1,97.37,376.75Z" transform="translate(-22.11 -175.09)"/><path class="cls-1" d="M356.56,397.87a210.08,210.08,0,0,0-7.06-21.12A136,136,0,0,1,356.56,397.87Z" transform="translate(-22.11 -175.09)"/><path class="cls-1" d="M360.51,430.66a137.08,137.08,0,1,1-274.15,0q0-3.53.18-7H360.33Q360.51,427.14,360.51,430.66Z" transform="translate(-22.11 -175.09)"/><path class="cls-1" d="M360.33,423.66H86.54a135.9,135.9,0,0,1,3.69-25.46c0-.11,0-.22.08-.33a210.08,210.08,0,0,1,7.06-21.12,137.13,137.13,0,0,1,252.13,0,210.08,210.08,0,0,1,7.06,21.12c0,.11.05.22.08.33A135.9,135.9,0,0,1,360.33,423.66Z" transform="translate(-22.11 -175.09)"/><path class="cls-1" d="M90.23,398.2a135.9,135.9,0,0,0-3.69,25.46h-.18A100.19,100.19,0,0,1,90.23,398.2Z" transform="translate(-22.11 -175.09)"/><path class="cls-1" d="M349.5,376.75a137.13,137.13,0,0,0-252.13,0C129.9,293,223.43,175.09,223.43,175.09S317,293,349.5,376.75Z" transform="translate(-22.11 -175.09)"/><path class="cls-1" d="M360.51,423.66h-.18a135.9,135.9,0,0,0-3.69-25.46A100.19,100.19,0,0,1,360.51,423.66Z" transform="translate(-22.11 -175.09)"/><circle class="cls-2" cx="201.33" cy="252.14" r="118.79"/><path class="cls-3" d="M269.5,498.09a80.16,80.16,0,0,1-41.43,11.54c-44.22,0-80.56-36.13-84.87-82.4,13.83,43.36,53,74.62,99.05,74.62A100.18,100.18,0,0,0,269.5,498.09Z" transform="translate(-22.11 -175.09)"/><path class="cls-4" d="M126.85,297.9s-16.12,29.16-45,39.28-59.7-2.65-59.7-2.65S37.79,304.13,66.72,294,126.85,297.9,126.85,297.9Z" transform="translate(-22.11 -175.09)"/><path class="cls-4" d="M126.27,283.63s-19.33-9.81-29.5-29.11-7.33-40.79-7.33-40.79,20,9.46,30.15,28.77S126.27,283.63,126.27,283.63Z" transform="translate(-22.11 -175.09)"/></svg>