<svg id="Layer_1" data-name="Layer 1" xmlns="http://www.w3.org/2000/svg" viewBox="0 0 471.91 429.59"><defs><style>.cls-1{fill:#778774;}</style></defs><path class="cls-1" d="M196,188.4c-10.3-11-8.7-29.28,3.57-40.73s30.58-11.77,40.88-.73c.32.35.63.7.92,1L197,189.35A9.72,9.72,0,0,1,196,188.4Z" transform="translate(0.04 -0.01)"/><path class="cls-1" d="M197,189.4,241.37,148a25.11,25.11,0,0,1,2.87,4.27v.07a41.57,41.57,0,0,1,1.73,4.14c3.26,10.3,0,22.65-9.13,31.2s-21.67,10.92-31.72,6.92a40.32,40.32,0,0,1-4-2h-.06A25.18,25.18,0,0,1,197,189.4Z" transform="translate(0.04 -0.01)"/><path class="cls-1" d="M205.12,194.59c10,4,22.58,1.62,31.75-6.93s12.39-20.9,9.13-31.2c6.11,17.14,7,48.49,7,48.49S221.78,201.89,205.12,194.59Z" transform="translate(0.04 -0.01)"/><path class="cls-1" d="M94.48,218.21c-15.1-.51-26.87-14.52-26.3-31.3S81.44,157,96.54,157.47a8.11,8.11,0,0,1,1.39.08l-2,60.67C95.41,218.23,95,218.23,94.48,218.21Z" transform="translate(0.04 -0.01)"/><path class="cls-1" d="M95.49,217.34l2-60.67a24.35,24.35,0,0,1,5,1h.07a38.49,38.49,0,0,1,4.15,1.71c9.6,5,16.06,16,15.64,28.49s-7.62,23.07-17.53,27.37a37.37,37.37,0,0,1-4.26,1.43h.07A24.8,24.8,0,0,1,95.49,217.34Z" transform="translate(0.04 -0.01)"/><path class="cls-1" d="M104.92,215.25c9.91-4.3,17.1-14.83,17.53-27.37s-6-23.52-15.64-28.49c16.45,7.77,39.26,29.29,39.26,29.29S121.86,208.59,104.92,215.25Z" transform="translate(0.04 -0.01)"/><path class="cls-1" d="M346.89,390.41c-12.19,8.92-30.11,5.16-40-8.39s-8.06-31.76,4.13-40.67c.38-.28.77-.54,1.15-.79l35.83,49C347.63,389.85,347.27,390.14,346.89,390.41Z" transform="translate(0.04 -0.01)"/><path class="cls-1" d="M348,389.59l-35.83-49a23.9,23.9,0,0,1,4.59-2.34h.06a38.1,38.1,0,0,1,4.33-1.22c10.61-2,22.48,2.65,29.88,12.77s8.24,22.85,3.11,32.35a40.67,40.67,0,0,1-2.48,3.76h0A25.46,25.46,0,0,1,348,389.59Z" transform="translate(0.04 -0.01)"/><path class="cls-1" d="M354.13,382.09c5.13-9.5,4.3-22.23-3.11-32.35S331.75,335,321.14,337c17.73-4,49-1.18,49-1.18S363.35,366.41,354.13,382.09Z" transform="translate(0.04 -0.01)"/><path class="cls-1" d="M327,199.43s-22.25-17.33-22.6-39.15,21.34-39.85,21.34-39.85,23.55,17.32,23.9,39.16S327,199.43,327,199.43Z" transform="translate(0.04 -0.01)"/><path class="cls-1" d="M356.22,219.48s.37-28.2,17.55-41.66,44.65-7.07,44.65-7.07.42,29.23-16.76,42.68S356.22,219.48,356.22,219.48Z" transform="translate(0.04 -0.01)"/><path class="cls-1" d="M61.22,67.85l47,52.58,68.71,57.35,123.7,70.29s86.13,33.33,107.82,46l63.42,37-11.63,18.52s-29.92-26.33-66.06-43.34L313.31,268.2l-53.9-25.9-84-55.49L105.63,126Z" transform="translate(0.04 -0.01)"/><path class="cls-1" d="M340.1,265.68s-9.08-34.69-9.41-36-5.51-43.77-5.51-43.77l9.08,39.68,6.18,18.49,9.19,27.44Z" transform="translate(0.04 -0.01)"/><polyline class="cls-1" points="341.01 245.62 344.75 233.45 358.44 215.09 349.72 235.57 345.03 257.65"/><path class="cls-1" d="M376.48,369.44s5.27,27.71-8.87,44.32-42.34,15.83-42.34,15.83S319,401,333.16,384.43,376.48,369.44,376.48,369.44Z" transform="translate(0.04 -0.01)"/><path class="cls-1" d="M367.76,335.08s-18.9,20.94-40.68,19.7-38.2-24.19-38.2-24.19,19-22.22,40.76-21S367.76,335.08,367.76,335.08Z" transform="translate(0.04 -0.01)"/><path class="cls-1" d="M410.37,311s-16.08,32.05-16.69,33.24-24.76,36.51-24.76,36.51L388.28,345l7.56-18,11.23-26.69Z" transform="translate(0.04 -0.01)"/><polyline class="cls-1" points="396.52 325.5 385.67 332.17 363.27 336.92 383.34 327.29 401.44 313.81"/><path class="cls-1" d="M231.47,173.35s-19.13-10.1-22.39-26.62S219.7,113.5,219.7,113.5s20.1,9.9,23.36,26.43S231.47,173.35,231.47,173.35Z" transform="translate(0.04 -0.01)"/><path class="cls-1" d="M256.24,184.59s-3.59-21.48,7.51-34.08S296.41,139,296.41,139s4.32,22.14-6.77,34.74S256.24,184.59,256.24,184.59Z" transform="translate(0.04 -0.01)"/><path class="cls-1" d="M245.16,121.05s-14.88-15.9-12.61-32.54,20.82-27.69,20.82-27.69,15.85,16,13.59,32.68S245.16,121.05,245.16,121.05Z" transform="translate(0.04 -0.01)"/><path class="cls-1" d="M250.42,221.86s-11.59-25.1-12-26-10.15-32.49-10.15-32.49l12.27,28.87,7.19,13.19L258.41,225Z" transform="translate(0.04 -0.01)"/><path class="cls-1" d="M246.35,206s-2.41-27.54-2.48-28.57S246,99.31,246,99.31l1.07,75.43,2.3,14.84,3.42,22Z" transform="translate(0.04 -0.01)"/><polyline class="cls-1" points="248.37 206.5 249.52 196.74 257.32 180.9 253.56 197.66 253.05 215.08"/><path class="cls-1" d="M58.85,99.85s-21.11,4.73-34.3-5.74S11.08,61.93,11.08,61.93s21.73-5.5,34.92,5S58.85,99.85,58.85,99.85Z" transform="translate(0.04 -0.01)"/><path class="cls-1" d="M85,92.31S68.3,78.31,68.58,61.5,86,31.5,86,31.5s17.67,14.09,17.37,30.87S85,92.31,85,92.31Z" transform="translate(0.04 -0.01)"/><path class="cls-1" d="M35.35,51.17S13.72,48.71,4.63,34.59,2.52,0,2.52,0,25,1.94,34.06,16.07,35.35,51.17,35.35,51.17Z" transform="translate(0.04 -0.01)"/><path class="cls-1" d="M104.74,124.49l-26-12c-.9-.41-28.8-18.15-28.8-18.15l28.06,14,18,3.15,18.62,16Z" transform="translate(0.04 -0.01)"/><path class="cls-1" d="M91.36,115.06S71.63,95.65,70.94,94.92s-49-60.86-49-60.86L71.63,90.78,83,100.59l16.9,14.57Z" transform="translate(0.04 -0.01)"/><polyline class="cls-1" points="93.23 114.15 87.78 105.97 83.44 88.86 91.45 104.06 102.36 117.65"/><path class="cls-1" d="M125.63,206.37s-10.27,19-26.82,22.22-33.18-10.92-33.18-10.92,10.06-20,26.61-23.15S125.63,206.37,125.63,206.37Z" transform="translate(0.04 -0.01)"/><path class="cls-1" d="M137,181.69s-21.51,3.42-34-7.78-11.28-32.75-11.28-32.75,22.17-4.15,34.68,7S137,181.69,137,181.69Z" transform="translate(0.04 -0.01)"/><path class="cls-1" d="M73.42,192.27s-16,14.75-32.64,12.35-27.52-21-27.52-21S29.43,167.89,46,170.29,73.42,192.27,73.42,192.27Z" transform="translate(0.04 -0.01)"/><path class="cls-1" d="M174.27,187.79s-25.19,11.4-26.14,11.8-32.56,9.9-32.56,9.9l29-12.05,14.06-11.52,24.31-3.59Z" transform="translate(0.04 -0.01)"/><path class="cls-1" d="M158.37,191.74s-27.56,2.19-28.58,2.26-78.11-2.76-78.11-2.76l75.44-.48L142,188.59l22.08-3.24Z" transform="translate(0.04 -0.01)"/><polyline class="cls-1" points="158.94 189.75 149.18 188.52 133.41 180.61 150.14 184.5 167.55 185.14"/></svg>